<?xml version="1.0" encoding="UTF-8"?>
<svg width="188px" height="43px" viewBox="0 0 188 43" version="1.1" xmlns="http://www.w3.org/2000/svg" xmlns:xlink="http://www.w3.org/1999/xlink">
    <!-- Generator: Sketch 56.3 (81716) - https://sketch.com -->
    <title>Logo</title>
    <desc>Created with Sketch.</desc>
    <g id="Home" stroke="none" stroke-width="1" fill="none" fill-rule="evenodd">
        <g id="HomeModel05V4" transform="translate(-40.000000, -31.000000)" fill="#FFFFFF" fill-rule="nonzero">
            <g id="Logo" transform="translate(40.000000, 30.000000)">
                <g id="UnukoFull" transform="translate(0.413043, 0.702174)">
                    <path d="M0,25.4045342 L0,1.65168798 L12.4269858,1.65168798 L12.4269858,25.5225119 C12.4269858,29.4944282 14.4326069,31.2640939 17.1854202,31.2640939 C19.9775594,31.2640939 21.9438546,29.6124059 21.9438546,25.6798155 L21.9438546,1.65168798 L34.3315144,1.65168798 L34.3315144,25.1685787 C34.3315144,37.3202832 27.3315035,42.1969274 17.0674425,42.1969274 C6.84270734,42.2360212 0,37.2809573 0,25.4045342" id="Path"></path>
                    <polygon id="Path" points="38.8539934 1.65168798 50.4944611 1.65168798 61.8203215 18.483175 61.8203215 1.65168798 73.8147223 1.65168798 73.8147223 41.4495031 62.7641432 41.4495031 50.8877201 23.7528462 50.8877201 41.4495031 38.8539934 41.4495031"></polygon>
                    <polygon id="Path" points="100.752967 1.65168798 113.022649 1.65168798 113.022649 16.0449689 121.870977 1.65168798 135.635044 1.65168798 124.427161 18.7191304 135.910325 41.4495031 121.713674 41.4495031 115.618159 28.8258878 113.022649 32.5225228 113.022649 41.4495031 100.752967 41.4495031"></polygon>
                    <polygon id="Path" points="90.1349726 1.57303617 83.8428279 1.57303617 77.7079868 1.57303617 77.7079868 14.0786737 83.8428279 14.0786737 83.8428279 41.6068067 96.151836 41.6068067 96.151836 1.57303617"></polygon>
                    <path d="M187.151978,35.4326398 C187.151978,38.8539934 184.359839,41.6461326 180.938486,41.6461326 C177.517132,41.6461326 174.724993,38.8539934 174.724993,35.4326398 C174.724993,32.0112861 177.517132,29.2191469 180.938486,29.2191469 C184.359839,29.2191469 187.151978,32.0112861 187.151978,35.4326398" id="Path"></path>
                    <path d="M153.52833,0.353933138 C141.848537,0.353933138 132.41032,9.83147607 132.41032,21.4719437 C132.41032,33.1124114 141.887863,42.5899543 153.52833,42.5899543 C165.208124,42.5899543 174.646341,33.1124114 174.646341,21.4719437 C174.646341,9.83147607 165.208124,0.353933138 153.52833,0.353933138 M153.52833,30.9101608 C148.337311,30.9101608 144.129439,26.702289 144.129439,21.5112696 C144.129439,16.3202503 148.337311,12.1123785 153.52833,12.1123785 C158.71935,12.1123785 162.927221,16.3202503 162.927221,21.5112696 C162.927221,26.702289 158.71935,30.9101608 153.52833,30.9101608" id="Shape"></path>
                </g>
            </g>
        </g>
    </g>
</svg>